<svg width="57" height="56" viewBox="0 0 57 56" fill="none" xmlns="http://www.w3.org/2000/svg">
<rect x="0.5" width="56" height="56" rx="28" fill="#1ED760"/>
<g clip-path="url(#clip0_1_32)">
<path d="M22.725 18.207L38.4633 27.293C38.5874 27.3647 38.6903 27.4678 38.7619 27.5919C38.8335 27.716 38.8712 27.8567 38.8712 28C38.8712 28.1433 38.8335 28.284 38.7619 28.4081C38.6903 28.5322 38.5874 28.6353 38.4633 28.707L22.725 37.793C22.6009 37.8647 22.4601 37.9024 22.3167 37.9024C22.1734 37.9024 22.0326 37.8647 21.9084 37.7931C21.7843 37.7214 21.6812 37.6184 21.6095 37.4943C21.5378 37.3701 21.5 37.2293 21.5 37.086V18.914C21.5 18.7707 21.5378 18.6299 21.6095 18.5058C21.6812 18.3816 21.7843 18.2786 21.9084 18.2069C22.0326 18.1353 22.1734 18.0976 22.3167 18.0976C22.4601 18.0976 22.6009 18.1353 22.725 18.207Z" fill="black"/>
</g>
<defs>
<clipPath id="clip0_1_32">
<rect width="28" height="28" fill="white" transform="translate(14.5 14)"/>
</clipPath>
</defs>
</svg>
